<svg width="20" height="20" viewBox="0 0 20 20" fill="none" xmlns="http://www.w3.org/2000/svg">
<g id="ic:baseline-copyright">
<path id="Vector" d="M9.90033 7.61699C10.967 7.66699 11.242 8.57533 11.2587 9.00033H12.7503C12.6837 7.35033 11.5087 6.34199 9.87533 6.34199C8.03366 6.34199 6.66699 7.50033 6.66699 10.117C6.66699 11.7337 7.44199 13.6503 9.86699 13.6503C11.717 13.6503 12.7087 12.2753 12.7337 11.192H11.242C11.217 11.6837 10.867 12.342 9.88366 12.392C8.79199 12.3587 8.33366 11.5087 8.33366 10.117C8.33366 7.70866 9.40033 7.63366 9.90033 7.61699ZM10.0003 1.66699C5.40033 1.66699 1.66699 5.40033 1.66699 10.0003C1.66699 14.6003 5.40033 18.3337 10.0003 18.3337C14.6003 18.3337 18.3337 14.6003 18.3337 10.0003C18.3337 5.40033 14.6003 1.66699 10.0003 1.66699ZM10.0003 16.667C6.32533 16.667 3.33366 13.6753 3.33366 10.0003C3.33366 6.32533 6.32533 3.33366 10.0003 3.33366C13.6753 3.33366 16.667 6.32533 16.667 10.0003C16.667 13.6753 13.6753 16.667 10.0003 16.667Z" fill="#666D80"/>
</g>
</svg>
