<svg width="18" height="26" viewBox="0 0 18 26" fill="none" xmlns="http://www.w3.org/2000/svg">
<g id="Group 1">
<path id="Union" fill-rule="evenodd" clip-rule="evenodd" d="M13 4.5C13 2.29086 11.2091 0.5 9 0.5C6.79086 0.5 5 2.29086 5 4.5V8.43552C2.03656 9.90822 0 12.9663 0 16.5C0 21.4706 4.02944 25.5 9 25.5C13.9706 25.5 18 21.4706 18 16.5C18 12.9663 15.9634 9.90822 13 8.43552V4.5ZM5.33318 13.1008C5.95061 14.5131 7.36005 15.5 9 15.5C10.6399 15.5 12.0494 14.5131 12.6668 13.1008C13.4942 13.9929 14 15.1874 14 16.5C14 19.2614 11.7614 21.5 9 21.5C6.23858 21.5 4 19.2614 4 16.5C4 15.1874 4.50582 13.9929 5.33318 13.1008Z" fill="#020617"/>
</g>
</svg>
